<?xml version="1.0" encoding="UTF-8"?>
<svg width="700px" height="589px" version="1.0" viewBox="0 0 7e3 5890" xmlns="http://www.w3.org/2000/svg"><g fill-opacity=".78431"><path transform="scale(10)" d="m267.92 544.24c-57.244-9.4115-102.53-32.037-141.91-70.897-42.252-41.693-67.231-93.008-73.905-151.83-2.0912-18.428-0.8618-54.302 2.4701-72.081 9.5019-50.701 33.504-96.219 69.961-132.68 35.554-35.554 78.496-58.606 129.39-69.462 15.076-3.2154 17.93-3.4192 48.464-3.461 28.885-0.03953 33.974 0.26569 46.384 2.782 47.242 9.5791 89.73 30.543 123.78 61.072l6.687 5.9963-13.55 5.4276c-36.546 14.638-85.059 42.459-98.825 56.672-6.2353 6.4376-6.6875 10.722-1.3299 12.598 6.0356 2.1134 11.268-0.1148 21.715-9.2472 11.394-9.9603 21.838-17.212 36.202-25.134 11.842-6.5318 40.68-20.126 55.296-26.066l10.385-4.2208 4.5893 5.4528c30.672 36.443 50.929 79.523 58.434 124.27 3.4787 20.741 3.2141 64.633-0.50775 84.232-11.024 58.05-36.346 103.88-78.919 142.83-34.035 31.141-74.289 51.458-121.3 61.222-13.112 2.7232-19.515 3.2664-44.043 3.7358-21.133 0.4044-31.539 0.0827-39.462-1.22zm67.11-116.82c5.9926-2.901 20.761-18.078 27.807-28.576 11.592-17.273 19.467-35.059 24.724-55.844 3.1332-12.387 3.3987-15.359 3.375-37.778-0.0215-20.363-0.47347-26.383-2.7702-36.893-6.478-29.646-14.389-47.405-26.369-59.195-22.952-22.589-55.626-27.916-88.867-14.489-17.788 7.185-36.546 20.662-47.959 34.457-5.3464 6.4621-16.579 26.837-15.429 27.987 0.29069 0.2907 5.0158-3.3846 10.5-8.1673 30.487-26.586 53.965-39.793 77.395-43.536 11.742-1.8758 27.69 0.31107 37.505 5.1429 21.29 10.481 35.887 36.519 39.408 70.299 1.9287 18.503 0.19562 36.298-5.8958 60.536-7.2679 28.919-16.652 49.501-27.607 60.555-6.6172 6.6764-12.309 9.374-19.779 9.374-13.607 0-20.827-9.9838-31.135-43.052-7.7491-24.858-14.056-34.812-21.918-34.588-5.1096 0.14528-9.7526 3.862-23.682 18.958-6.3899 6.9249-11.992 12.152-12.45 11.615-0.45762-0.53674-1.7627-3.5098-2.9001-6.6069-2.4418-6.6486-8.9432-14.959-11.703-14.959-1.0701 0-3.6965 1.8715-5.8366 4.1588-3.6444 3.8952-6.266 8.9482-17.589 33.902-2.4916 5.4907-6.8091 13.771-9.5944 18.401-5.7586 9.5719-5.8637 14.288-0.44849 20.132 7.3789 7.962 17.719 1.3445 21.936-14.038 3.3098-12.074 5.5458-16.178 9.3311-17.128 4.6261-1.1611 6.4274 1.1837 8.0438 10.471 3.4446 19.79 13.358 16.721 26.858-8.3132 8.1828-15.175 12.299-20.13 16.72-20.13 5.1977 0 8.1111 4.1376 14.414 20.47 9.041 23.429 14.933 32.254 25.021 37.476 5.7785 2.9908 22.147 2.63 28.896-0.63703zm-14.867-253.85c16.3-3.8432 30.236-12.222 33.56-20.178 3.7131-8.8868 0.99835-20.062-5.5304-22.767-8.1813-3.3888-29.143 4.1831-39.532 14.28-5.6542 5.4952-11.849 16.433-11.874 20.963-6e-3 1.2539 1.6292 3.9212 3.6355 5.9274 4.2336 4.2336 7.9087 4.5638 19.741 1.7741z" fill="#ccc"/><path d="m3644.8 1871c-33.991-13.716-14.931-63.818 45.939-120.75 82.342-77.021 347.84-250.69 524.97-343.4 275.38-144.13 786.04-350.12 1055.6-425.81 197.65-55.5 500.3-103.46 660.23-104.62 118.7-0.864 144.33 2.729 189.48 26.562 92.74 48.957 112.83 110.83 67.827 208.84-39.619 86.278-99.043 120.82-139.04 80.829-30.062-30.062-31.068-53.23-4.101-94.388 13.867-21.163 16.46-35.512 7.956-44.016-6.94-6.9397-67.665-17.826-134.94-24.191-394.56-37.329-918.69 110.27-1578.2 444.46-215.4 109.14-330.18 183.76-477.73 310.56-95.384 81.974-115.62 94.068-155.99 93.21-25.509-0.542-53.399-3.8176-61.979-7.2794z"/><path transform="scale(10)" d="m311.5 163.12c-0.74301-1.2022 1.7671-5.0851 5.4302-8.4 4.5515-4.1189 10.538-7.3367 16.895-9.0805 4.1476-1.1379 5.037-1.2054 6.5232-0.49528 2.7532 1.3155 2.5193 3.1516-0.86171 6.7663-3.911 4.1812-12.677 9.9688-16.667 11.004-3.7221 0.96549-10.771 1.0937-11.319 0.20584z" fill="#ccc"/><path transform="scale(10)" d="m310.15 429.03c-10.689-2.8405-18.628-13.179-27.74-36.127-7.0594-17.777-10.7-23.11-15.778-23.11-3.3488 0-9.5066 6.9603-15.018 16.975-9.6522 17.539-16.719 25.4-21.708 24.148-2.623-0.65834-5.282-6.0236-6.7323-13.584-1.6283-8.4886-4.9211-11.537-9.7-8.979-2.284 1.2224-4.9564 6.6557-7.9149 16.092-3.7873 12.08-8.4039 17.585-14.747 17.585-6.0249 0-11.336-6.5974-10.384-12.9 0.28708-1.9023 2.7003-7.3399 5.3627-12.084 2.6624-4.7437 7.3919-14.176 10.51-20.962 3.118-6.7852 7.0997-15.177 8.8482-18.649 3.5284-7.0065 9.5321-14.114 11.922-14.114 2.7075 0 7.7478 6.2452 11.166 13.836 1.8185 4.0377 3.6319 7.3412 4.0299 7.3412 0.39795 0 7.165-6.5092 15.038-14.465 14.816-14.972 17.521-16.826 23.017-15.775 3.0321 0.57963 7.802 5.9578 11.129 12.548 1.472 2.9159 5.4514 13.454 8.8432 23.418 11.26 33.078 17.313 41.069 31.072 41.021 15.586-0.0544 28.471-14.705 39.948-45.422 4.3399-11.615 10.569-36.31 12.306-48.783 3.9199-28.156 0.26465-54.801-10.497-76.517-12.181-24.581-29.807-35.737-56.463-35.737-24.534 0-47.833 11.493-83.685 41.279-6.695 5.5624-12.38 9.9062-12.633 9.6529-0.57471-0.57472 2.7239-7.1267 8.5761-17.035 12.379-20.958 39.87-40.547 67.675-48.221 9.3072-2.5688 32.953-2.7967 41.647-0.40148 14.046 3.8699 29.183 13.729 38.131 24.838 8.6773 10.771 16.522 30.426 21.497 53.861 2.3231 10.943 2.4375 12.628 2.4869 36.619 0.0502 24.387-0.0191 25.428-2.2904 34.413-3.6467 14.425-7.4333 25.074-13.178 37.06-7.266 15.159-15.262 26.798-26.157 38.076-11.8 12.214-15.196 14.016-27.281 14.476-4.7575 0.18106-9.8412 0.0126-11.297-0.37429z"/><path transform="scale(10)" d="m300.9 171.49c-3.9481-3.9481-4.346-6.0502-2.1434-11.322 5.2152-12.482 15.801-21.788 30.8-27.075 12.664-4.4645 19.639-3.7309 23.123 2.4318 2.344 4.1459 2.7568 12.864 0.8278 17.48-3.9386 9.4265-25.275 20.306-42.24 21.54l-6.8176 0.49559zm25.8-10.047c5.3874-2.7406 13.861-9.4542 14.95-11.845 1.7542-3.8499 0.36137-5.1105-5.0316-4.5538-10.556 1.0895-26.756 12.822-24.787 17.952 0.46698 1.217 1.4197 1.364 5.8434 0.90159 2.907-0.30384 6.9681-1.4084 9.0247-2.4546z"/></g></svg>
