<?xml version="1.0" encoding="UTF-8"?>
<svg width="2362px" height="2362px" version="1.0" viewBox="0 0 12000 12000" xmlns="http://www.w3.org/2000/svg"><path transform="scale(5.0804)" d="m197.65 1871.7c-32.263-5.0817-35.03-6.6698-35.03-20.106 0-13.92 140.7-294.03 332.59-662.14 62.411-119.73 113.88-223.3 114.38-230.16 0.90149-12.373 0.41568-12.521-59.703-18.221-63.663-6.0357-75.582-9.8049-98.719-31.218-20.521-18.992-28.328-36.838-28.328-64.752 0-20.138 5.4493-35.318 30.181-84.069 52.961-104.4 125.36-196.2 162.98-206.65 13.47-3.7399 190.55-5.4294 571.06-5.4487l551.54-0.0279 5.5812 10.429c4.4204 8.2596 3.2077 17.152-5.8311 42.756-6.2769 17.78-14.245 34.678-17.707 37.551-4.2388 3.5179-180 6.124-538.2 7.9803-508.86 2.637-532.49 3.1616-545.24 12.106-17.218 12.075-31.875 42.758-42.142 88.222-11.7 51.811-12.796 51.105 79.857 51.45 44.885 0.16749 82.748 2.7139 93.01 6.2553 38.637 13.333 58.529 68.815 45.857 127.9-5.4378 25.356-324.31 867.11-345.5 912.05-10.135 21.493-12.525 23.346-33.874 26.272-24.257 3.3248-215.42 3.1753-236.76-0.1852z"/><path transform="scale(5.0804)" d="m508.86 1871.7c-6.361-1.3422-12.801-5.6589-14.31-9.5928-3.3578-8.7504 21.65-69.037 32.815-79.108 5.9252-5.3445 30.964-8.4945 94.112-11.84 81.646-4.3254 87.65-5.3527 117.6-20.123 60.529-29.851 136.15-118.54 206.23-241.86 42.245-74.338 58.152-110.25 150.98-340.83 142.28-353.41 135.27-338.83 173.92-361.49 21.024-12.321 23.753-12.578 186.24-17.568 173.85-5.3382 208.57-7.7605 223.16-15.569 13.613-7.2856 32.872-43.325 67.715-126.72 19.592-46.89 36.448-79.85 44.409-86.836 12.345-10.833 16.44-11.26 108.11-11.26 88.304 0 96.344 0.75769 109.81 10.349 27.88 19.852 21.17 36.55-94.363 234.86-79.414 136.31-87.562 148.03-111.35 160.17-18.531 9.4538-29.72 9.9801-213.67 10.05-145 0.0551-197.23 1.6528-206.45 6.3151-9.1485 4.6294-22.418 28.177-51.379 91.175-21.475 46.714-38.089 87.425-36.92 90.47 1.4211 3.7033 40.803 6.5457 118.94 8.5842 111.32 2.9044 117.22 3.5493 125.46 13.725 8.2381 10.173 8.1442 11.662-1.987 31.52-25.259 49.512-64.375 106.9-76.684 112.51-8.8666 4.0399-50.949 5.9305-132.01 5.9305-138.41 0-123.76-5.838-163.26 65.055-104.36 187.3-227.02 343.55-327.8 417.55-72.284 53.084-101.13 61.444-222.69 64.538-52.294 1.3307-100.28 1.3213-106.65-0.02z"/></svg>
